<svg id="Capa_1" enable-background="new 0 0 512 512" height="512" viewBox="0 0 512 512" width="512" xmlns="http://www.w3.org/2000/svg"><g><path d="m468.225 239.423-53.047-53.1-11.402 11.42v-197.743h-360v106.129h15v-31.112h330v137.748l-166.891 167.142 10.607 10.623 161.422-161.667 31.82 31.867-201.468 201.774-31.819-31.868 28.921-28.965-10.607-10.622-30.605 30.652h-121.381v-300.549h-15v315.572h124.605l-24.497 75.276 79.139-27.003 48.201-48.274h42.55v-15.023h-27.55l102.552-102.707.001 102.707h-30.003v15.023h45.003l-.001-132.753zm-409.45-179.428v-44.972h330v44.972zm345.747 158.245 10.658-10.674 31.828 31.859-10.667 10.683zm-222.048 223.656 30.583 30.63-45.618 15.565z"/><path d="m404.543 260.663-10.607-10.624-10.607 10.623 10.608 10.623z"/><path d="m362.116 281.908 10.608 10.623 10.606-10.622-10.607-10.624z"/><path d="m328.772 421.701h15v15.023h-15z"/><path d="m268.783 106.288h-180.024v180.138h180.024zm-15 165.116h-150.024v-150.093h150.024z"/><path d="m88.772 316.526h150v15.023h-150z"/><path d="m88.772 346.698h120v15.023h-120z"/><path d="m88.772 376.871h90v15.023h-90z"/><path d="m73.772 29.997h15v15.023h-15z"/><path d="m103.772 29.997h15v15.023h-15z"/><path d="m283.615 151.198h75.128v-44.91h-75.128zm15-29.887h45.128v14.864h-45.128z"/><path d="m283.772 181.242h75v15.023h-75z"/><path d="m238.679 196.36h-59.812v59.902h59.812zm-15 44.879h-29.812v-29.857h29.812z"/><path d="m148.772 196.265c16.542 0 29.999-13.477 29.999-30.044s-13.457-30.045-29.999-30.045-29.999 13.478-29.999 30.045 13.457 30.044 29.999 30.044zm0-45.067c8.271 0 14.999 6.739 14.999 15.023 0 8.283-6.729 15.022-14.999 15.022s-14.999-6.739-14.999-15.022c0-8.284 6.729-15.023 14.999-15.023z"/></g></svg>